<?xml version="1.0" encoding="UTF-8"?>
<!DOCTYPE svg PUBLIC "-//W3C//DTD SVG 1.1//EN" "http://www.w3.org/Graphics/SVG/1.1/DTD/svg11.dtd">
<!-- Creator: CorelDRAW X8 -->
<svg xmlns="http://www.w3.org/2000/svg" xml:space="preserve" width="163.197mm" height="163.197mm" version="1.1" style="shape-rendering:geometricPrecision; text-rendering:geometricPrecision; image-rendering:optimizeQuality; fill-rule:evenodd; clip-rule:evenodd"
viewBox="0 0 4936 4936"
 xmlns:xlink="http://www.w3.org/1999/xlink">
 <defs>
  <style type="text/css">
   <![CDATA[
    .fil0 {fill:url(#id0)}
   ]]>
  </style>
  <linearGradient id="id0" gradientUnits="userSpaceOnUse" x1="722.833" y1="4212.98" x2="4212.98" y2="722.833">
   <stop offset="0" style="stop-opacity:1; stop-color:#FF3399"/>
   <stop offset="1" style="stop-opacity:1; stop-color:#FF9933"/>
  </linearGradient>
 </defs>
 <g id="Capa_x0020_1">
  <metadata id="CorelCorpID_0Corel-Layer"/>
  <path class="fil0" d="M2468 0c1363,0 2468,1105 2468,2468 0,1363 -1105,2468 -2468,2468 -1363,0 -2468,-1105 -2468,-2468 0,-1363 1105,-2468 2468,-2468zm-1436 2645l0 -354c0,-505 -57,-1079 495,-1218 234,-59 1076,-41 1349,-40 385,0 695,18 878,257 175,230 151,661 151,994 0,275 9,735 -17,983 -22,199 -80,329 -185,435 -231,231 -647,202 -1042,202l-385 0c-394,0 -821,29 -1045,-206 -105,-110 -162,-236 -182,-439 -19,-194 -17,-415 -17,-614zm-312 407c18,426 58,687 367,944 284,237 717,226 1090,225 291,0 585,5 876,-4 275,-9 508,-34 713,-160 166,-103 307,-261 383,-492 75,-228 73,-548 73,-805 0,-291 4,-586 -5,-876 -11,-374 -42,-579 -254,-841 -35,-42 -71,-68 -112,-103 -280,-237 -726,-226 -1090,-226 -292,1 -586,-4 -876,5 -275,9 -511,34 -713,160 -167,104 -307,259 -384,492 -75,228 -73,548 -73,805 0,288 -8,589 5,876zm1681 -1163c338,-43 610,214 646,507 42,342 -211,615 -506,651 -343,41 -615,-211 -651,-508 -43,-347 212,-611 511,-650zm-33 -316c-461,53 -855,464 -795,999 53,459 470,853 999,791 460,-53 854,-469 792,-999 -54,-460 -469,-852 -996,-791zm989 -246c-267,63 -183,465 88,413 103,-20 194,-121 166,-253 -22,-100 -125,-191 -254,-160z"/>
 </g>
</svg>
