<?xml version="1.0" encoding="UTF-8"?>
<!DOCTYPE svg PUBLIC "-//W3C//DTD SVG 1.1//EN" "http://www.w3.org/Graphics/SVG/1.1/DTD/svg11.dtd">
<!-- Creator: CorelDRAW X8 -->
<svg xmlns="http://www.w3.org/2000/svg" xml:space="preserve" width="163.197mm" height="162.322mm" version="1.1" style="shape-rendering:geometricPrecision; text-rendering:geometricPrecision; image-rendering:optimizeQuality; fill-rule:evenodd; clip-rule:evenodd"
viewBox="0 0 19750 19644"
 xmlns:xlink="http://www.w3.org/1999/xlink">
 <defs>
  <style type="text/css">
   <![CDATA[
    .fil0 {fill:url(#id0)}
   ]]>
  </style>
  <linearGradient id="id0" gradientUnits="userSpaceOnUse" x1="2929.77" y1="16804.3" x2="16819.8" y2="2839.44">
   <stop offset="0" style="stop-opacity:1; stop-color:#330066"/>
   <stop offset="1" style="stop-opacity:1; stop-color:#336699"/>
  </linearGradient>
 </defs>
 <g id="Capa_x0020_1">
  <metadata id="CorelCorpID_0Corel-Layer"/>
  <path class="fil0" d="M9875 0c5453,0 9875,4421 9875,9875 0,4962 -3661,9069 -8428,9769l0 -7742c114,-32 2532,18 2700,-13l400 -3116 -3094 0c-7,-407 -1,-818 -1,-1225 0,-915 -153,-1936 832,-2224 119,-34 394,-91 517,-76 70,-35 829,-16 924,-16 310,0 621,0 933,0l-5 -2806c-512,-47 -1013,-81 -1534,-99 -516,-18 -1051,-34 -1559,27 -1015,120 -1811,558 -2342,1125 -526,562 -832,1319 -952,2097 -120,775 -38,2302 -65,3190 -23,15 24,4 -34,12l-2683 0 2 3116c683,0 1365,0 2047,0 49,0 627,-15 669,13l0 7679c-4595,-846 -8077,-4872 -8077,-9711 0,-5454 4421,-9875 9875,-9875z"/>
 </g>
</svg>
